<?xml version="1.0" standalone="no"?>
<!DOCTYPE svg PUBLIC "-//W3C//DTD SVG 20010904//EN"
 "http://www.w3.org/TR/2001/REC-SVG-20010904/DTD/svg10.dtd">
<svg version="1.0" xmlns="http://www.w3.org/2000/svg"
 width="512.000000pt" height="512.000000pt" viewBox="0 0 512.000000 512.000000"
 preserveAspectRatio="xMidYMid meet">
<metadata>
Created by potrace 1.14, written by Peter Selinger 2001-2017
</metadata>
<g transform="translate(0.000000,512.000000) scale(0.100000,-0.100000)"
fill="#000000" stroke="none">
<path d="M2315 5109 c-720 -74 -1370 -439 -1799 -1009 -505 -670 -649 -1543
-386 -2340 127 -387 332 -720 621 -1009 405 -405 902 -649 1494 -733 118 -17
512 -17 630 0 592 84 1088 328 1494 733 405 406 649 902 733 1494 17 118 17
512 0 630 -84 592 -328 1088 -733 1494 -396 395 -881 639 -1449 726 -126 19
-477 28 -605 14z m620 -903 c587 -102 913 -442 990 -1033 l7 -53 -379 0 -378
0 -22 94 c-56 239 -176 363 -389 401 -401 72 -655 -148 -740 -640 -22 -125
-30 -536 -15 -701 42 -447 190 -680 481 -760 89 -24 325 -25 424 0 81 19 185
68 215 100 21 22 21 31 19 267 l-3 244 -272 3 -273 2 0 270 0 270 665 0 665 0
0 -668 0 -669 -58 -56 c-338 -322 -1134 -479 -1682 -332 -339 91 -632 326
-792 633 -131 251 -184 493 -195 882 -11 444 38 747 168 1019 205 431 560 683
1049 745 75 9 428 -3 515 -18z"/>
</g>
</svg>
